<svg width="23.000000" height="19.000000" viewBox="0 0 23 19" fill="none" xmlns="http://www.w3.org/2000/svg" xmlns:xlink="http://www.w3.org/1999/xlink">
	<desc>
			Created with Pixso.
	</desc>
	<defs/>
	<path id="Vector" d="M23 1.46C22.11 1.85 21.15 2.12 20.17 2.23C21.19 1.61 21.96 0.64 22.33 -0.52C21.36 0.07 20.31 0.47 19.21 0.69C18.75 0.19 18.19 -0.21 17.58 -0.48C16.96 -0.75 16.29 -0.89 15.62 -0.89C12.9 -0.89 10.71 1.35 10.71 4.1C10.71 4.49 10.75 4.87 10.83 5.24C6.75 5.03 3.12 3.05 0.7 0.02C0.26 0.79 0.03 1.66 0.03 2.54C0.03 4.27 0.9 5.8 2.22 6.7C1.44 6.67 0.68 6.45 0 6.06L0 6.12C0 8.55 1.69 10.56 3.94 11.02C3.51 11.13 3.08 11.19 2.64 11.19C2.32 11.19 2.02 11.16 1.72 11.11C2.34 13.09 4.15 14.52 6.31 14.57C4.62 15.91 2.5 16.7 0.21 16.7C-0.2 16.7 -0.58 16.69 -0.98 16.64C1.2 18.06 3.78 18.88 6.57 18.88C15.6 18.88 20.55 11.28 20.55 4.69C20.55 4.47 20.55 4.26 20.53 4.04C21.49 3.33 22.33 2.45 23 1.46Z" fill="#21A6DF" fill-opacity="1.000000" fill-rule="nonzero"/>
</svg>
