<svg width="24.000000" height="17.000000" viewBox="0 0 24 17" fill="none" xmlns="http://www.w3.org/2000/svg" xmlns:xlink="http://www.w3.org/1999/xlink">
	<desc>
			Created with Pixso.
	</desc>
	<defs/>
	<path id="Vector" d="M23.46 1.93C23.33 1.39 23.06 0.91 22.69 0.52C22.32 0.13 21.86 -0.15 21.35 -0.3C19.48 -0.83 11.98 -0.83 11.98 -0.83C11.98 -0.83 4.48 -0.83 2.62 -0.3C2.11 -0.15 1.65 0.13 1.28 0.52C0.9 0.91 0.64 1.39 0.5 1.93C0.15 3.93 -0.02 5.96 0 8C-0.02 10.03 0.15 12.06 0.5 14.06C0.64 14.6 0.9 15.08 1.28 15.47C1.65 15.86 2.11 16.14 2.62 16.29C4.48 16.82 11.98 16.82 11.98 16.82C11.98 16.82 19.48 16.82 21.35 16.29C21.86 16.14 22.32 15.86 22.69 15.47C23.06 15.08 23.33 14.6 23.46 14.06C23.81 12.06 23.98 10.03 23.97 8C23.98 5.96 23.81 3.93 23.46 1.93ZM9.59 11.78L9.59 4.21L15.81 8L9.59 11.78Z" fill="#E42F08" fill-opacity="1.000000" fill-rule="nonzero"/>
</svg>
